# xmcd
#
# Track frame offsets: 
#        150
#        27917
#        50380
#        65037
#        81101
#        112671
#        127903
#        146297
#        177366
#        195163
#        209198
#
# Disc length: 3313 seconds
#
# Revision: 1
# Processed by: cddbd v1.5.2PL0 Copyright (c) Steve Scherf et al.
# Submitted via: ExactAudioCopy v1.0b4
#
DISCID=920cef0b
DTITLE=John McGale - Blues Force Live
DYEAR=2011
DGENRE=Blues
TTITLE0=Poke Salad Annie
TTITLE1=Spooky
TTITLE2=Six Days On The Road
TTITLE3=Rock Me Baby
TTITLE4=Red House
TTITLE5=Deux Autres Bieres
TTITLE6=Born To Be Wild
TTITLE7=Moondance
TTITLE8=She's a Real Cowboy
TTITLE9=Hard On
TTITLE10=Use Me
EXTD=
EXTT0=
EXTT1=
EXTT2=
EXTT3=
EXTT4=
EXTT5=
EXTT6=
EXTT7=
EXTT8=
EXTT9=
EXTT10=
PLAYORDER=
